<svg width="32" height="24" fill="none" xmlns="http://www.w3.org/2000/svg"><path d="M19.429 19.2H2.286L2.282 3.1l13.068 8.444a1.2 1.2 0 00.65.189 1.2 1.2 0 00.65-.19l13.064-8.439V12.8H32V2.133c0-.565-.242-1.107-.67-1.507A2.374 2.374 0 0029.713 0H2.286C1.68 0 1.099.226.67.625c-.428.4-.67.943-.67 1.508V19.2c0 .566.242 1.108.67 1.508.429.4 1.01.625 1.616.625h17.143V19.2zm7.77-17.067L16 9.37 4.801 2.133H27.2z" fill="#C99647"/><path d="M27.333 24a4.667 4.667 0 100-9.333 4.667 4.667 0 000 9.333z" fill="#010C45"/></svg>