<svg width="32" height="32" fill="none" xmlns="http://www.w3.org/2000/svg"><path d="M31.555 26.61l-4.511 4.475c-.666.683-1.549.914-2.409.915-3.802-.114-7.395-1.981-10.346-3.9-4.843-3.523-9.287-7.892-12.076-13.171C1.143 12.715-.112 9.89.008 7.419c.01-.93.261-1.842.916-2.441L5.435.468c.937-.796 1.843-.521 2.443.407l3.63 6.883c.382.815.162 1.689-.408 2.272l-1.662 1.66a.816.816 0 00-.17.475c.638 2.467 2.569 4.741 4.275 6.306 1.706 1.565 3.54 3.685 5.92 4.187.293.082.654.111.864-.085l1.934-1.966c.666-.505 1.629-.752 2.34-.34h.034l6.547 3.866c.961.602 1.061 1.767.373 2.475z" fill="#C99647"/></svg>