<svg xmlns="http://www.w3.org/2000/svg" viewBox="0 0 331.17 34.57"><g data-name="Слой 2"><g data-name="Слой 1"><path d="M.39 24c12.68 8.16 26 6.39 39.3 2.37 5.14-1.54 10.11-3.64 15.3-5.54-.5-1-.84-1.56-1.13-2.18-2.73-5.87-1.08-12.06 4.63-15.11C67.63-1.3 77-1.08 86.22 3.55A12.45 12.45 0 0190 7.15C84.5 3.16 78.32 2 71.8 2.24c-4.75.21-9.33 1.17-13.09 4.38S54.29 14.33 56.8 18a3.64 3.64 0 002.27 1.08c-2-6.22.76-11.37 8.19-13.88 4.8-1.62 11.41-1.38 15.3.57-7.37-.19-14.42-.08-19.56 5.67-1.39 1.57-1.83 4-2.71 6l.8.59 4.8-1.78c6.66-2.45 13.39-4.56 20.58-4.66 4.53-.06 8.79.77 12.5 3.59 1.17.89 2.45 1.64 3.67 2.45l-.93 1.1c-6.29-6.2-13.77-6-21.3-3.67C74.1 17 68 19.68 61.18 22.28A31.67 31.67 0 0074 26.64c8.35 1.17 16.47-.22 24.27-3 9.73-3.45 19.25-7.5 28.92-11.14 7.14-2.69 14.47-4.73 22.22-4.47 6 .2 11.18 2.24 14.74 7.51-7.56-7.13-16.28-6.27-24.92-3.2-8.06 2.86-15.84 6.51-23.74 9.83C105.26 26.46 95 30.45 83.7 31c-8.79.39-17-1.36-24.55-6.15a3.58 3.58 0 00-2.83.06c-8.16 3.46-16.42 6.6-25.25 7.84-8.42 1.18-16.62.4-24.3-3.47A67.73 67.73 0 010 24.75zm166.84-8.6c3.2-5 8.08-7 13.78-7.32 8.22-.48 16 1.77 23.51 4.63 9.58 3.62 19 7.72 28.7 11 10.1 3.46 20.5 4.82 31 1.28 1.74-.59 3.41-1.41 5.8-2.41-9.55-4-18.07-8.8-28.12-8.89-4.82 0-6.81.8-12.94 5.19a15.86 15.86 0 0112.49-7.17c7.31-.68 14.22 1.15 21 3.5 2.49.86 5 1.83 7.43 2.75.85-3.12-.48-6.25-3.73-8.55-4.4-3.1-9.44-3.78-14.66-3.71h-2.62c6-3.31 17.2-1.49 21.43 3.47 2.37 2.77 3.27 5.84 1.35 9.31l.39.68c.77-.37 1.84-.53 2.27-1.14 2.62-3.71 1.82-8.52-2-11.57-5.28-4.16-11.53-4.7-17.91-4.11-4.9.45-9.53 1.86-13.31 5.34 1-2.5 3-3.93 5.32-5a30.15 30.15 0 0122.77-.88c9 3.12 11.54 9.9 7.07 19 5 1.85 10 3.89 15.08 5.49 10 3.16 20.17 4.94 30.52 1.83 3.14-.94 6.07-2.57 9.35-3.64a50.37 50.37 0 01-5.56 4.07c-9.87 5.33-20.37 5.79-30.94 3-6.72-1.78-13.18-4.52-19.79-6.74a3.89 3.89 0 00-2.84-.08c-10 6.32-20.86 7.35-32.2 5.29-11.5-2.09-22-7-32.6-11.67-7.35-3.27-14.64-6.71-22.72-7.88-6.55-.88-12.36.3-17.32 4.93z"/><path d="M256 33a44.64 44.64 0 01-20.2.88c-11.36-1.89-21.79-6.46-32.2-11.11-7.65-3.42-15.21-7.13-23.59-8.54-1.94-.32-3.94-.37-6.62-.61 4.5-1.92 8.63-2.16 12.43-.91 8.19 2.68 16.3 5.7 24.25 9 10.18 4.28 20.26 8.87 31.3 10.4 4.94.67 9.98.59 14.63.89zm-98.23-19.26c-10.58-.14-19.29 4.15-28.08 8-10.19 4.51-20.31 9.15-31.29 11.5a48.84 48.84 0 01-21.05.24c-.43-.09-.86-.18-1.28-.31s-.64-.25-1.16-.47c3.42 0 6.61.18 9.77 0 11.66-.78 22.33-5 33-9.51 8.36-3.54 16.76-7 25.32-10.06a19 19 0 0114.77.61z"/></g></g></svg>