<svg xmlns="http://www.w3.org/2000/svg" viewBox="0 0 141.23 19.02"><defs><style>.cls-1{fill:#fff}</style></defs><g id="Слой_2" data-name="Слой 2"><g id="Слой_1-2" data-name="Слой 1"><path class="cls-1" d="M69.7 11.41c-.4 2.42-2.15 3.79-4.32 4.55a9.86 9.86 0 01-7.38-.34v-1.21c2.63 1.1 6 1.19 8.2-.05s3-3.31 2-5.31a4.37 4.37 0 00-5.6-2.16c-1.51.55-2.21 1.71-1.79 2.93a2.47 2.47 0 003.27 1.41c.2-.06.39-.14.66-.25a2.52 2.52 0 01-2.81 2 3 3 0 01-2.67-2.69 4.67 4.67 0 015.47-4.89c.75.09 1.47.32 2.21.48a.43.43 0 00.08.18 5.08 5.08 0 012.68 5.35z"/><path class="cls-1" d="M84.2 13.05v1.76a30.94 30.94 0 01-5 1.57 7.93 7.93 0 01-6.8-1.84 5 5 0 01.32-8.14c.17-.13.32-.31.48-.46a18.83 18.83 0 014.27-.29A4.24 4.24 0 0181 10.36a3 3 0 01-2.65 2.57 2.45 2.45 0 01-2.78-1.81c.61.09 1.34.43 1.82.21a4.49 4.49 0 002.07-1.68c.49-1-.16-1.84-1-2.41a4.53 4.53 0 00-6 1.21c-1.34 2-.81 4.22 1.36 5.68a7.17 7.17 0 006.28.87 24.38 24.38 0 004.1-1.95zm2.28-4.28C89.7 5.12 94.55 4 100.09 4.33c6.27.33 11.41 2.77 16.47 5.31C111.74 8.07 107 6.26 101.65 6S91 6.15 86.48 8.77zm-63.73.89c6.68-3.11 13.35-6.2 21.86-5.19 4 .47 7.35 1.73 9.74 4.41-10.93-5.14-21.29-2.88-31.6.78zM73.29 5c-.76 0-1.1 0-1.37-.19a1 1 0 00-1.45.34c-.1.19-.2.38-.31.57a13.6 13.6 0 00-.4-.77.94.94 0 00-1.12-.46c-.59.18-1.12.33-1.63.5-.36-.81-.62-1.61.38-2.19.7-.4 1.33-.24 2 .59a1 1 0 001.48-.09 1.47 1.47 0 011.92-.53c1.15.44.9 1.36.5 2.23zM71 1.88c-.56-1-1.16-.91-1.8 0l-.2-.34.82-1.37a.36.36 0 01.61 0l.85 1.36z"/><path class="cls-1" d="M58 14.41v1.21l-.24-.09c-1.2-.42-2.34-.91-3.52-1.36-4.49 4.36-13.76 5.18-17.83 1.26a16.58 16.58 0 0010.56 1.36 18.26 18.26 0 005-2.09c1-.53.82-1.2-.46-1.75-5.84-2.51-11.79-2.3-17.78-.54-5.23 1.59-10.3 3.34-15.55 4.83A48.63 48.63 0 018 19c-1.46.11-3.47 0-4.64-1 5.87.93 11-.68 16.18-2.44 4.07-1.39 8.05-3 12.16-4.3 6.74-2.17 13.53-3 20.35.24-.67-1.2-1.57-1.81-3.52-2.33A23.56 23.56 0 0036 9.09c-5.12 1.42-10 3.29-15.13 4.84a108.76 108.76 0 01-11.25 3 15.76 15.76 0 01-6.1-.35C.9 16-.48 13.74.15 12c.85-2.3 4.18-3 6.5-1.23a2.83 2.83 0 01-.45 0c-2.09-.61-3.67-.28-4.49.92s-.25 2.6 1.34 3.5a7.53 7.53 0 005.81.62c4.62-1.3 9.21-2.71 13.66-4.32C27.36 9.77 32 7.67 37.44 7.1a27.44 27.44 0 0112.24 1.18c2.09.75 3.71 1.83 4.29 3.63a1.37 1.37 0 00.38.61A10.12 10.12 0 0058 14.41zm83.17-1.07c-.49 2.13-3 3.65-6.38 3.79a30.27 30.27 0 01-11-1.86c-4.81-1.59-9.52-3.33-14.35-4.89A34.35 34.35 0 0094.08 8.6c-2.52.34-4.84.94-6.63 2.82a9.63 9.63 0 001.09-.29 24.53 24.53 0 0116.15-.9c5.09 1.38 10 3.23 15 4.77a90.59 90.59 0 0010.14 2.72 52.21 52.21 0 007.62.38c-1.86 1.07-4.41 1-6.95.77-4.41-.43-8.61-2-12.86-3.13-5.11-1.36-10.11-3-15.29-4.19a22.78 22.78 0 00-15.21 2c.38 1.37 1.57 2.12 3.07 2.61a18.91 18.91 0 0011.92 0l1-.36s.1 0 .16.05c-3.16 3.57-14.06 2.57-17.42-1.46l-1.66.44v-1.78l.76-.29a1.46 1.46 0 00.77-.71c1-2.78 3.89-3.86 7.2-4.53a34.67 34.67 0 0118.89 1.71c4.29 1.55 8.49 3.26 12.83 4.73a55.49 55.49 0 007.62 1.91 12.37 12.37 0 004.16-.06c2.44-.43 3.89-2.22 3.26-3.71s-2.56-1.95-5.17-1.3a3.87 3.87 0 014.22-.81c1.75.57 2.75 1.94 2.42 3.35z"/></g></g></svg>