<svg xmlns="http://www.w3.org/2000/svg" viewBox="0 0 365.69 44.97"><g data-name="Слой 2"><g data-name="Шар 1"><path d="M78.01.83c12 0 21.84 8.78 21.84 21.58 0 13.85-9.88 22.56-22.17 22.56-13 0-22.42-9.49-22.42-22C55.26 11.82 63.19.83 78.01.83zm-1 2.86c-6.63 0-11.5 6.5-11.5 18 0 11 4.35 20.41 13.13 20.41 6.17 0 11-6 11-17.88 0-12.85-5.07-20.53-12.57-20.53zm69.38 40.68c-.39 0-1.17 0-1.95-.07-8.26-.39-10.66-2.14-12.61-4.88-2.6-3.57-4.49-7.54-6.7-11.44-1-1.75-1.88-2.14-4-2.14l-1.3-.07v9.49c0 5.27.65 5.72 5.52 6.31v2.41H105.5v-2.39c4.94-.52 5.53-1 5.53-6.31V10.37c0-5.14-.65-5.85-5.53-6.24V1.74h18.85c5.79 0 9.1.65 11.77 2.47a9.94 9.94 0 014.35 8.65c0 5.78-3.83 8.84-8.12 10.53 1 1.95 3.51 6.17 5.46 9.16a51.21 51.21 0 004.94 6.76 8 8 0 004.09 2.87zm-24.77-21.24c2.8 0 4.94-.46 6.37-1.69 2.15-1.82 3.06-4.29 3.06-7.61 0-6.89-4-9.36-7.61-9.36-1.75 0-2.6.26-3 .65s-.58 1.17-.58 2.47v15.54zM171.61.83c12 0 21.84 8.78 21.84 21.58 0 13.85-9.88 22.56-22.17 22.56-13 0-22.42-9.49-22.42-22 0-11.15 7.93-22.14 22.75-22.14zm-1 2.86c-6.63 0-11.5 6.5-11.5 18 0 11 4.35 20.41 13.13 20.41 6.17 0 11-6 11-17.88 0-12.85-5.07-20.53-12.61-20.53zm88.29.46c-4.68.58-5.52 1.56-7.34 6.89-1.69 5-6.57 20.41-10.66 33.67h-3.64c-3.32-9.36-7-19-10.73-28.73-3.38 9.81-6.63 19.3-9.69 28.73h-3.77c-2.6-9.17-6.76-22.62-10.4-34.13-1.62-4.94-2.6-6-6.56-6.43V1.74h19.63v2.41c-4.88.45-5 1.43-4.1 4.81 2.15 7.47 4.42 15.08 6.57 22.16 3.32-9.16 6.44-19 9.42-29h3.44c3.58 9.94 7.28 19.63 10.86 29.12 2.4-7 5.52-17.88 6.43-21.58s.26-5-5.33-5.46V1.74h15.86zM260.65 44v-2.41c4.94-.45 5.53-.84 5.53-6.31V10.52c0-5.46-.65-6-5.53-6.37V1.74h20.09v2.41c-4.88.45-5.53.91-5.53 6.37v24.76c0 5.4.59 5.79 5.53 6.31V44zm61.56-31.01a20.13 20.13 0 00-2.8-6.37c-1.17-1.37-1.69-1.89-5.52-1.89h-4.16v30.55c0 5.47.65 5.86 6.43 6.31V44h-21.58v-2.41c5.53-.45 6.11-.84 6.11-6.31V4.73h-4c-3.64 0-4.68.59-5.92 2.15a24.46 24.46 0 00-2.66 6.17h-2.47c.45-4.74.91-9.81 1-12.93h2c1 1.49 1.75 1.62 3.7 1.62h26a4.29 4.29 0 003.77-1.62h1.96c.06 2.73.32 8.45.65 12.67zm43.48 18.98c-.45 2.47-2.27 9.75-2.86 12h-34.9l-.46-1.44c7.93-11.89 16.71-25.28 24.77-37.76h-10c-4.68 0-5.79.65-7.15 2.86a30.71 30.71 0 00-2.6 5.59l-2.47-.07c.39-4 1-10.2 1.23-13.06h2.28c.78 1.56 1.69 1.62 3.64 1.62h26.26l.45 1.17c-7.93 12.22-16.31 25-24.44 37.9 2.15.19 4 .19 8.13.19 7.73 0 9-.19 10.85-1.94a24.1 24.1 0 004.8-7.66z" fill="#bb964d"/><path fill="#bb954d" stroke="#bb954d" stroke-miterlimit="10" stroke-width="1.5" d="M7.58.75v22.61h-3.6L1.27 28.3h6.31v15.69h7.24v-15.7h20.93v15.7h7.09V28.32h3.25l2.94-4.99h-6.22V.75h-7.06v22.59H14.66V.75H7.58z"/></g></g></svg>