<svg width="32" height="32" viewBox="0 0 32 32" fill="none" xmlns="http://www.w3.org/2000/svg">
<path d="M31.5554 26.6091L27.0437 31.0846C26.3777 31.7676 25.495 31.999 24.6353 32C20.8334 31.8861 17.2397 30.0186 14.2891 28.1009C9.44587 24.5775 5.00198 20.2085 2.21291 14.9289C1.1432 12.7149 -0.111942 9.89008 0.00797813 7.4189C0.0186715 6.4893 0.269178 5.57696 0.923871 4.97776L5.4355 0.468396C6.37235 -0.328484 7.27835 -0.0529638 7.87787 0.87525L11.5075 7.75797C11.8895 8.57336 11.6704 9.44701 11.1004 10.0296L9.43822 11.691C9.3356 11.8315 9.27027 11.9915 9.26862 12.1657C9.906 14.6329 11.837 16.907 13.5428 18.472C15.2486 20.037 17.0821 22.1573 19.4622 22.6592C19.7563 22.7413 20.1167 22.7701 20.3272 22.5744L22.2608 20.6079C22.9273 20.1027 23.8897 19.8558 24.6013 20.2689H24.6353L31.1822 24.1341C32.1433 24.7365 32.2435 25.9008 31.5554 26.6091Z" fill="#C99647"/>
</svg>
