<svg width="32" height="24" viewBox="0 0 32 24" fill="none" xmlns="http://www.w3.org/2000/svg">
<path d="M19.4286 19.2H2.28571L2.28229 3.09973L15.3497 11.5435C15.5408 11.6669 15.7676 11.733 16 11.733C16.2324 11.733 16.4592 11.6669 16.6503 11.5435L29.7143 3.104V12.8H32V2.13333C31.9991 1.5678 31.758 1.02567 31.3295 0.625774C30.9011 0.225879 30.3202 0.0008464 29.7143 0H2.28571C1.67969 0.000564775 1.09866 0.225508 0.670138 0.625463C0.241615 1.02542 0.000605116 1.56771 0 2.13333V19.2C0.000906857 19.7655 0.242014 20.3077 0.670472 20.7076C1.09893 21.1075 1.67978 21.3325 2.28571 21.3333H19.4286V19.2ZM27.1989 2.13333L16 9.3696L4.80114 2.13333H27.1989Z" fill="#C99647"/>
<path d="M27.3332 24C29.9105 24 31.9998 21.9107 31.9998 19.3334C31.9998 16.756 29.9105 14.6667 27.3332 14.6667C24.7558 14.6667 22.6665 16.756 22.6665 19.3334C22.6665 21.9107 24.7558 24 27.3332 24Z" fill="#010C45"/>
</svg>
