<svg xmlns="http://www.w3.org/2000/svg" viewBox="0 0 164.29 22.12" fill="#fff"><g data-name="Слой 2"><g data-name="Слой 1"><path d="M81.07 13.27c-.46 2.82-2.49 4.41-5 5.3a11.45 11.45 0 01-8.64-.4v-1.41c3.06 1.28 7 1.39 9.54-.06s3.46-3.84 2.37-6.17A5.07 5.07 0 0072.82 8c-1.76.64-2.58 2-2.09 3.4a2.89 2.89 0 003.81 1.65c.23-.07.45-.17.77-.3a2.93 2.93 0 01-3.31 2.3 3.43 3.43 0 01-3.11-3.13 5.44 5.44 0 016.41-5.64c.87.11 1.71.37 2.57.56a.38.38 0 00.1.2c2.3 1.49 3.54 3.53 3.1 6.23z"/><path d="M97.94 15.18v2.05a35.7 35.7 0 01-5.77 1.83 9.23 9.23 0 01-7.91-2.15 5.82 5.82 0 01.37-9.46 7.14 7.14 0 00.56-.54 22.12 22.12 0 015-.34 4.93 4.93 0 014 5.51 3.43 3.43 0 01-3.08 3 2.84 2.84 0 01-3.23-2.1c.71.1 1.56.5 2.11.24a5.2 5.2 0 002.41-1.95c.57-1.11-.18-2.14-1.22-2.81a5.27 5.27 0 00-7 1.41c-1.56 2.32-.94 4.91 1.58 6.61a8.35 8.35 0 007.35 1 27.73 27.73 0 004.83-2.3zm2.66-4.98C104.35 6 110 4.7 116.43 5c7.29.39 13.27 3.22 19.17 6.18-5.6-1.79-11.13-3.9-17.35-4.18s-12.38.16-17.65 3.2zm-74.13 1.04C34.24 7.61 42 4 51.89 5.2c4.65.55 8.55 2 11.34 5.12-12.72-5.96-24.77-3.32-36.76.92zM85.25 5.8c-.89 0-1.28.06-1.6-.22a1.14 1.14 0 00-1.71.42l-.36.66a34.3 34.3 0 00-.47-.89 1.09 1.09 0 00-1.3-.54l-1.9.58c-.42-.94-.72-1.87.44-2.54.82-.47 1.55-.28 2.37.68a1.11 1.11 0 001.72-.1 1.71 1.71 0 012.23-.62c1.33.5 1.05 1.57.58 2.57zM82.6 2.18C82 1 81.25 1.13 80.51 2.13l-.23-.34.94-1.59a.42.42 0 01.71 0l1 1.58z"/><path d="M67.41 16.76v1.41l-.28-.1c-1.39-.49-2.72-1.07-4.13-1.59-5.23 5.08-16 6-20.74 1.47a19.3 19.3 0 0012.28 1.58 21 21 0 005.87-2.43c1.12-.61 1-1.39-.53-2-6.8-2.92-13.72-2.68-20.68-.63-6.08 1.79-12 3.88-18.09 5.62a57.38 57.38 0 01-11.89 2c-1.7.12-4-.05-5.4-1.14 6.84 1.08 12.86-.8 18.82-2.84 4.74-1.62 9.37-3.45 14.15-5 7.83-2.53 15.73-3.45 23.67.27-.78-1.39-1.82-2.1-4.1-2.71a27.34 27.34 0 00-14.5-.05c-6 1.65-11.71 3.82-17.62 5.62a125.3 125.3 0 01-13.09 3.47 18.31 18.31 0 01-7.09-.4C1.05 18.57-.56 16 .18 14c1-2.66 4.85-3.44 7.56-1.42a2.76 2.76 0 01-.53 0c-2.42-.7-4.27-.32-5.22 1.07s-.29 3 1.56 4.08a8.81 8.81 0 006.75.72c5.38-1.51 10.72-3.16 15.9-5 5.63-2 11.06-4.48 17.36-5.14A32.1 32.1 0 0157.8 9.63c2.42.87 4.3 2.13 5 4.23a1.54 1.54 0 00.44.7 11.78 11.78 0 004.17 2.2zm96.81-1.24c-.57 2.48-3.53 4.24-7.42 4.41a35.6 35.6 0 01-12.8-2.16c-5.6-1.85-11.08-3.88-16.69-5.69A40.07 40.07 0 00109.44 10c-2.93.4-5.63 1.1-7.71 3.29A11.34 11.34 0 00103 13a28.51 28.51 0 0118.79-1c5.92 1.61 11.58 3.76 17.44 5.55A105.6 105.6 0 00151 20.62c2.93.54 6.11.33 8.86.44-2.17 1.24-5.13 1.18-8.09.89-5.12-.5-10-2.33-15-3.64-5.95-1.58-11.76-3.49-17.79-4.87a26.55 26.55 0 00-17.69 2.31c.44 1.59 1.83 2.47 3.56 3a22.11 22.11 0 0013.88 0c.38-.13.76-.29 1.15-.42 0 0 .12 0 .18.05-3.67 4.16-16.36 3-20.26-1.69-.65.16-1.29.33-1.94.51v-2.02l.89-.34a1.68 1.68 0 00.89-.82c1.16-3.23 4.53-4.49 8.38-5.27a40.21 40.21 0 0122 2c5 1.8 9.88 3.79 14.93 5.5a64.49 64.49 0 008.86 2.22 14.31 14.31 0 004.84-.07c2.85-.5 4.53-2.58 3.8-4.31s-3-2.27-6-1.52a4.52 4.52 0 014.91-.94c2.08.65 3.25 2.25 2.86 3.89z"/></g></g></svg>