<svg xmlns="http://www.w3.org/2000/svg" viewBox="0 0 164.29 22.12" fill="white"><g id="Слой_2" data-name="Слой 2"><g id="Слой_1-2" data-name="Слой 1"><path d="M81.07,13.27c-.46,2.82-2.49,4.41-5,5.3a11.45,11.45,0,0,1-8.64-.4V16.76c3.06,1.28,7,1.39,9.54-.06s3.46-3.84,2.37-6.17A5.07,5.07,0,0,0,72.82,8c-1.76.64-2.58,2-2.09,3.4a2.89,2.89,0,0,0,3.81,1.65c.23-.07.45-.17.77-.3A2.93,2.93,0,0,1,72,15.05a3.43,3.43,0,0,1-3.11-3.13A5.44,5.44,0,0,1,75.3,6.28c.87.11,1.71.37,2.57.56h0s0,0,0,0a.38.38,0,0,0,.1.2C80.27,8.53,81.51,10.57,81.07,13.27Z"/><path d="M97.94,15.18v2.05a35.7,35.7,0,0,1-5.77,1.83,9.23,9.23,0,0,1-7.91-2.15,5.82,5.82,0,0,1,.37-9.46,7.14,7.14,0,0,0,.56-.54l0,0h0a22.12,22.12,0,0,1,5-.34,4.93,4.93,0,0,1,4,5.51,3.43,3.43,0,0,1-3.08,3,2.84,2.84,0,0,1-3.23-2.1c.71.1,1.56.5,2.11.24a5.2,5.2,0,0,0,2.41-1.95c.57-1.11-.18-2.14-1.22-2.81a5.27,5.27,0,0,0-7,1.41c-1.56,2.32-.94,4.91,1.58,6.61a8.35,8.35,0,0,0,7.35,1A27.73,27.73,0,0,0,97.94,15.18Z"/><path d="M100.6,10.2C104.35,6,110,4.7,116.43,5c7.29.39,13.27,3.22,19.17,6.18C130,9.39,124.47,7.28,118.25,7S105.87,7.16,100.6,10.2Z"/><path d="M26.47,11.24C34.24,7.61,42,4,51.89,5.2c4.65.55,8.55,2,11.34,5.12C50.51,4.36,38.46,7,26.47,11.24Z"/><path d="M85.25,5.8v0h0c-.89,0-1.28.06-1.6-.22A1.14,1.14,0,0,0,81.94,6l-.36.66c-.16-.31-.32-.62-.47-.89a1.09,1.09,0,0,0-1.3-.54l-1.9.58c-.42-.94-.72-1.87.44-2.54.82-.47,1.55-.28,2.37.68a1.11,1.11,0,0,0,1.72-.1,1.71,1.71,0,0,1,2.23-.62C86,3.73,85.72,4.8,85.25,5.8Z"/><path d="M82.6,2.18C82,1,81.25,1.13,80.51,2.13l-.23-.34L81.22.2a.42.42,0,0,1,.71,0l1,1.58Z"/><path d="M67.41,16.76v1.41l-.28-.1C65.74,17.58,64.41,17,63,16.48c-5.23,5.08-16,6-20.74,1.47a19.3,19.3,0,0,0,12.28,1.58,21,21,0,0,0,5.87-2.43c1.12-.61,1-1.39-.53-2-6.8-2.92-13.72-2.68-20.68-.63-6.08,1.79-12,3.88-18.09,5.62a57.38,57.38,0,0,1-11.89,2c-1.7.12-4-.05-5.4-1.14,6.84,1.08,12.86-.8,18.82-2.84,4.74-1.62,9.37-3.45,14.15-5,7.83-2.53,15.73-3.45,23.67.27-.78-1.39-1.82-2.1-4.1-2.71a27.34,27.34,0,0,0-14.5-.05c-6,1.65-11.71,3.82-17.62,5.62a125.3,125.3,0,0,1-13.09,3.47,18.31,18.31,0,0,1-7.09-.4C1.05,18.57-.56,16,.18,14c1-2.66,4.85-3.44,7.56-1.42a2.76,2.76,0,0,1-.53,0c-2.42-.7-4.27-.32-5.22,1.07s-.29,3,1.56,4.08a8.81,8.81,0,0,0,6.75.72c5.38-1.51,10.72-3.16,15.9-5,5.63-2,11.06-4.48,17.36-5.14A32.1,32.1,0,0,1,57.8,9.63c2.42.87,4.3,2.13,5,4.23a1.54,1.54,0,0,0,.44.7A11.78,11.78,0,0,0,67.41,16.76Z"/><path d="M164.22,15.52c-.57,2.48-3.53,4.24-7.42,4.41A35.6,35.6,0,0,1,144,17.77c-5.6-1.85-11.08-3.88-16.69-5.69A40.07,40.07,0,0,0,109.44,10c-2.93.4-5.63,1.1-7.71,3.29A11.34,11.34,0,0,0,103,13a28.51,28.51,0,0,1,18.79-1c5.92,1.61,11.58,3.76,17.44,5.55A105.6,105.6,0,0,0,151,20.62c2.93.54,6.11.33,8.86.44-2.17,1.24-5.13,1.18-8.09.89-5.12-.5-10-2.33-15-3.64-5.95-1.58-11.76-3.49-17.79-4.87a26.55,26.55,0,0,0-17.69,2.31c.44,1.59,1.83,2.47,3.56,3a22.11,22.11,0,0,0,13.88,0c.38-.13.76-.29,1.15-.42,0,0,.12,0,.18.05-3.67,4.16-16.36,3-20.26-1.69-.65.16-1.29.33-1.94.51V15.18l.89-.34a1.68,1.68,0,0,0,.89-.82c1.16-3.23,4.53-4.49,8.38-5.27a40.21,40.21,0,0,1,22,2c5,1.8,9.88,3.79,14.93,5.5a64.49,64.49,0,0,0,8.86,2.22,14.31,14.31,0,0,0,4.84-.07c2.85-.5,4.53-2.58,3.8-4.31s-3-2.27-6-1.52a4.52,4.52,0,0,1,4.91-.94C163.44,12.28,164.61,13.88,164.22,15.52Z"/></g></g></svg>