<svg width="39" height="39" viewBox="0 0 39 39" fill="none" xmlns="http://www.w3.org/2000/svg">
<path d="M38.5656 16.9698H34.1533C33.9027 16.9698 33.663 17.0781 33.4942 17.2677L21.57 30.9335V0.433318C21.57 0.194993 21.3739 0 21.1342 0H17.8658C17.6261 0 17.43 0.194993 17.43 0.433318V30.9335L5.50582 17.2677C5.3424 17.0781 5.10272 16.9698 4.8467 16.9698H0.434363C0.0639445 16.9698 -0.137606 17.4085 0.107523 17.6848L18.1872 38.4028C18.3506 38.5902 18.5527 38.7406 18.7796 38.8436C19.0066 38.9467 19.2532 39 19.5027 39C19.7522 39 19.9988 38.9467 20.2258 38.8436C20.4528 38.7406 20.6548 38.5902 20.8183 38.4028L38.8925 17.6848C39.1376 17.4031 38.9361 16.9698 38.5656 16.9698Z" fill="white"/>
</svg>
